REM COMMENT "Generated by IcecastMetadataRecorder https://github.com/eshaz/icecast-metadata-js"
REM BR "16"
REM METAINT "64"
REM DATE "2020-07-29T21:16:11.222Z"
TITLE "isics-all"
FILE "isics-all.mp3" WAVE
  TRACK 1 AUDIO
    TITLE "2020-07-29T21:32:10.046Z TO:7300 Department of Transportation - District 1 Highway Helper - Des Moines Area FROM:14966"
    INDEX 01 15:58:62
  TRACK 2 AUDIO
    TITLE "2020-07-29T21:32:12.134Z TO:48696 Polk County - UnityPoint Health Security FROM:10779029"
    INDEX 01 16:00:68
  TRACK 3 AUDIO
    TITLE "2020-07-29T21:32:14.942Z TO:48696 Polk County - UnityPoint Health Security FROM:120"
    INDEX 01 16:03:54
  TRACK 4 AUDIO
    TITLE "2020-07-29T21:32:17.030Z TO:7300 Department of Transportation - District 1 Highway Helper - Des Moines Area FROM:14950"
    INDEX 01 16:05:61
  TRACK 5 AUDIO
    TITLE "2020-07-29T21:32:19.190Z TO:48696 Polk County - UnityPoint Health Security FROM:10779029"
    INDEX 01 16:07:73
  TRACK 6 AUDIO
    TITLE "2020-07-29T21:32:23.366Z TO:48696 Polk County - UnityPoint Health Security FROM:120"
    INDEX 01 16:12:11
  TRACK 7 AUDIO
    TITLE "2020-07-29T21:32:25.454Z TO:24605 Dallas County Law 1 FROM:2510032"
    INDEX 01 16:14:17
  TRACK 8 AUDIO
    TITLE "2020-07-29T21:32:27.542Z TO:24605 Dallas County Law 1 FROM:2559984"
    INDEX 01 16:16:24
  TRACK 9 AUDIO
    TITLE "2020-07-29T21:32:28.982Z TO:24605 Dallas County Law 1 FROM:2559981"
    INDEX 01 16:17:57
  TRACK 10 AUDIO
    TITLE "END"
    INDEX 01 16:19:64